<?xml version="1.0" standalone="no"?>
<!DOCTYPE svg PUBLIC "-//W3C//DTD SVG 20010904//EN"
 "http://www.w3.org/TR/2001/REC-SVG-20010904/DTD/svg10.dtd">
<svg version="1.0" xmlns="http://www.w3.org/2000/svg"
 width="896.000000pt" height="896.000000pt" viewBox="0 0 896.000000 896.000000"
 preserveAspectRatio="xMidYMid meet">
<metadata>
Created by potrace 1.11, written by Peter Selinger 2001-2013
</metadata>
<g transform="translate(0.000000,896.000000) scale(0.100000,-0.100000)"
fill="#000000" stroke="none">
<path d="M6757 7103 c-1 0 -40 -4 -87 -7 -47 -3 -101 -8 -120 -11 -19 -3 -51
-8 -70 -10 -41 -6 -75 -13 -75 -15 0 -1 -11 -3 -25 -5 -83 -11 -243 -67 -362
-127 -205 -103 -353 -250 -439 -435 -43 -92 -47 -102 -58 -148 -10 -39 -13
-57 -29 -160 -12 -78 -6 -216 13 -317 3 -16 7 -38 9 -50 28 -147 122 -329 228
-438 186 -193 383 -298 763 -408 142 -41 183 -52 330 -88 222 -53 471 -122
545 -150 70 -26 169 -83 219 -126 17 -15 43 -51 58 -80 63 -125 21 -274 -100
-354 -32 -21 -154 -74 -172 -74 -3 0 -6 0 -7 -1 -8 -2 -47 -9 -78 -14 -81 -13
-142 -18 -255 -18 -141 -1 -227 7 -335 28 -14 3 -38 8 -55 11 -59 10 -241 65
-300 89 -124 52 -170 73 -245 113 -47 24 -127 74 -179 109 -51 36 -97 61 -101
56 -4 -4 -31 -75 -59 -158 -29 -82 -57 -161 -62 -175 -6 -14 -24 -63 -40 -110
-15 -47 -38 -110 -49 -140 l-21 -55 38 -33 c42 -37 192 -139 220 -149 10 -4
20 -9 23 -12 3 -4 46 -25 95 -48 193 -89 411 -156 640 -198 26 -5 155 -22 230
-31 33 -4 143 -8 244 -9 168 -1 228 2 361 20 25 4 56 8 70 9 14 2 35 6 47 10
11 4 34 8 49 11 36 5 173 46 234 71 204 81 412 242 493 382 12 21 24 39 27 42
3 3 20 35 37 71 74 156 95 264 88 438 -5 130 -6 138 -21 206 -4 22 -9 42 -9
45 -16 84 -90 246 -145 320 -42 56 -152 164 -215 210 -33 25 -62 48 -65 52 -3
3 -57 34 -121 67 -143 75 -460 181 -738 247 -9 2 -45 11 -81 19 -36 9 -72 18
-80 20 -8 2 -50 13 -92 24 -43 12 -111 30 -150 41 -163 43 -259 81 -302 119
-10 9 -21 15 -25 14 -3 -1 -29 17 -57 42 -99 85 -125 206 -69 330 12 27 71 94
107 120 38 29 179 79 253 90 98 14 321 17 423 5 141 -17 147 -18 147 -20 0 -1
9 -3 20 -5 11 -2 36 -7 55 -10 51 -10 189 -53 237 -76 24 -10 47 -19 52 -19
37 0 258 -116 318 -166 l51 -44 11 32 c9 31 78 299 87 343 2 11 22 89 43 172
35 142 37 154 21 168 -9 8 -22 15 -28 15 -7 0 -12 4 -12 9 0 5 -8 11 -17 15
-23 7 -78 39 -99 57 -10 8 -20 13 -23 12 -3 -1 -37 13 -76 32 -100 48 -347
129 -460 151 -11 2 -31 6 -45 9 -49 10 -85 16 -190 30 -76 10 -436 25 -443 18z"/>
<path d="M0 7095 c0 -1 15 -31 34 -67 19 -37 32 -69 30 -71 -3 -2 2 -10 11
-17 8 -7 15 -16 15 -21 0 -8 50 -110 103 -214 12 -22 21 -42 22 -45 0 -3 68
-140 149 -305 287 -579 466 -945 466 -953 0 -4 6 -14 13 -20 6 -7 12 -16 13
-20 0 -4 66 -140 146 -302 134 -272 309 -626 686 -1392 81 -164 149 -298 153
-298 4 0 14 17 22 38 8 20 26 62 40 92 14 30 35 78 47 105 13 28 32 70 43 95
11 25 21 47 22 50 1 3 13 30 27 60 14 30 44 96 66 145 40 89 69 154 116 258
36 79 65 147 66 152 0 3 9 22 20 42 11 21 20 45 20 54 0 8 -32 78 -71 155 -39
76 -130 254 -201 394 -72 140 -189 370 -260 510 -72 140 -170 332 -218 425
-89 173 -293 573 -483 945 l-104 205 -497 0 c-273 0 -496 0 -496 0z"/>
<path d="M1825 7090 c-2 -4 61 -139 142 -301 80 -162 198 -402 263 -534 65
-132 217 -440 337 -685 121 -245 226 -460 234 -477 7 -18 17 -33 21 -33 5 0 8
-5 8 -12 0 -12 15 -42 380 -783 122 -247 271 -550 331 -672 60 -123 111 -223
114 -223 5 0 35 64 127 270 29 65 68 150 84 184 8 16 14 35 14 43 0 7 5 13 10
13 6 0 10 7 10 15 0 8 4 23 10 33 10 18 32 67 132 292 33 74 63 140 66 145 4
6 7 12 7 15 1 3 9 23 19 45 l17 40 -84 165 c-46 91 -145 284 -219 430 -75 146
-185 362 -245 480 -61 118 -168 328 -238 465 -70 138 -132 256 -137 263 -6 6
-7 12 -3 12 4 0 3 6 -3 13 -11 13 -108 201 -297 577 -60 118 -110 217 -113
220 -5 7 -983 7 -987 0z"/>
<path d="M3743 7086 c2 -6 16 -14 33 -19 16 -6 46 -21 66 -34 21 -12 42 -23
48 -23 5 0 10 -4 10 -10 0 -5 5 -10 11 -10 10 0 99 -62 173 -120 54 -43 198
-198 250 -270 127 -175 242 -428 270 -590 3 -14 5 -26 7 -27 3 -5 6 -22 8 -45
2 -20 4 -19 21 12 10 19 22 42 25 50 4 8 32 71 63 139 32 69 57 127 58 130 0
3 12 32 27 64 15 31 39 83 53 115 15 31 38 82 52 112 14 30 26 57 27 60 0 3
15 36 33 73 18 38 32 70 32 72 0 2 23 52 50 110 28 58 50 107 50 109 0 2 9 23
19 47 11 24 19 49 18 54 -1 7 -244 10 -704 10 -433 0 -702 -4 -700 -9z"/>
<path d="M2810 2771 c-5 -450 1 -885 11 -892 6 -4 23 -4 38 0 14 4 37 5 51 1
42 -11 60 5 60 55 l0 44 38 -36 c56 -54 115 -77 192 -75 74 1 81 2 133 25 77
33 142 106 168 187 16 50 19 223 5 255 -5 11 -10 22 -11 25 -8 32 -47 89 -84
122 -128 114 -297 114 -407 0 l-39 -41 0 187 0 186 -77 1 -78 1 0 -45z m436
-344 c77 -40 114 -113 110 -217 -5 -131 -86 -213 -202 -206 -58 4 -88 18 -127
59 -42 46 -58 93 -56 167 3 101 34 153 113 195 47 25 116 26 162 2z"/>
<path d="M6596 2811 c-7 -14 -7 -141 1 -142 4 -1 43 -3 86 -4 l77 -2 0 76 0
76 -80 1 c-45 0 -82 -2 -84 -5z"/>
<path d="M553 2765 c2 -11 7 -27 10 -35 26 -68 46 -130 42 -130 -3 0 2 -14 11
-31 8 -17 17 -38 19 -47 2 -10 42 -129 90 -267 48 -137 89 -259 92 -270 3 -11
7 -27 11 -35 3 -8 6 -17 7 -20 21 -61 21 -61 92 -58 l66 3 30 85 c16 47 65
188 108 314 43 126 81 231 84 234 2 3 7 -1 9 -9 38 -115 74 -219 98 -284 16
-44 31 -87 33 -95 2 -8 22 -67 44 -130 l39 -115 74 0 73 0 12 35 c6 19 39 114
72 210 34 96 63 182 66 190 2 8 38 114 79 235 42 121 76 225 76 231 0 8 -122
12 -161 5 -3 -1 -11 -20 -18 -43 -7 -24 -35 -113 -62 -198 -28 -85 -52 -162
-54 -170 -20 -78 -84 -252 -89 -240 -3 8 -52 156 -110 328 -57 172 -107 316
-110 319 -10 10 -109 11 -128 1 -10 -5 -18 -17 -18 -26 0 -10 -5 -23 -12 -30
-7 -7 -9 -12 -6 -12 4 0 -2 -26 -13 -57 -11 -32 -22 -65 -24 -73 -2 -8 -18
-55 -35 -105 -18 -49 -33 -94 -34 -100 -1 -5 -4 -14 -7 -20 -3 -5 -21 -58 -39
-117 -19 -60 -38 -108 -41 -108 -4 0 -23 53 -44 118 -20 64 -40 126 -45 137
-4 11 -31 94 -60 185 -75 241 -57 215 -150 215 -75 0 -80 -1 -77 -20z"/>
<path d="M3863 2772 c-116 -41 -177 -122 -179 -237 -4 -160 65 -220 323 -284
134 -33 172 -62 175 -132 3 -73 -46 -110 -149 -115 -97 -4 -180 24 -269 92
-27 21 -34 23 -41 10 -4 -8 -25 -32 -46 -55 l-37 -40 22 -21 c99 -93 290 -143
446 -117 47 8 122 47 156 81 86 88 94 257 15 334 -37 36 -137 88 -189 98 -31
6 -95 28 -104 36 -6 4 -17 8 -26 8 -9 0 -35 9 -58 20 -63 31 -83 80 -55 138
42 88 191 89 329 4 48 -30 49 -30 64 -11 8 11 30 37 47 57 l33 37 -23 19 c-26
23 -141 76 -177 83 -14 3 -65 7 -115 9 -70 3 -102 0 -142 -14z"/>
<path d="M5627 2569 c-21 -5 -51 -15 -66 -24 -35 -17 -101 -92 -101 -113 0 -9
-3 -12 -7 -9 -3 4 -6 35 -5 69 0 34 -4 65 -9 69 -6 4 -26 3 -45 -1 -19 -4 -36
-4 -39 0 -6 10 -53 1 -61 -12 -3 -5 -6 -156 -6 -335 0 -349 0 -348 51 -334 14
5 38 4 53 0 52 -14 56 0 61 181 5 179 5 177 31 233 30 61 92 104 161 112 17 2
33 4 38 4 11 1 4 164 -8 167 -5 1 -27 -2 -48 -7z"/>
<path d="M8613 2561 c-78 -25 -139 -82 -150 -141 -7 -41 -10 -80 -5 -85 3 -3
7 -13 8 -21 1 -9 15 -33 29 -54 29 -41 104 -79 228 -114 72 -21 100 -46 91
-84 -9 -37 -20 -49 -57 -61 -56 -19 -165 3 -231 46 -31 20 -41 22 -47 12 -4
-8 -19 -29 -33 -48 -14 -19 -26 -38 -26 -42 0 -18 138 -88 190 -96 135 -20
214 -2 297 68 46 38 53 60 53 153 0 93 -1 95 -71 149 -21 16 -69 35 -118 47
-97 25 -130 38 -153 64 -23 24 -23 38 0 66 33 40 123 34 228 -16 33 -16 36
-16 52 2 26 30 54 83 48 93 -7 11 -104 58 -136 65 -59 14 -148 12 -197 -3z"/>
<path d="M2240 2557 c-84 -17 -172 -96 -216 -192 -24 -52 -28 -73 -28 -150 0
-65 5 -99 17 -122 10 -18 17 -35 17 -38 -1 -13 38 -64 78 -102 120 -114 340
-117 471 -8 17 15 31 30 31 34 0 5 -17 25 -37 46 -30 30 -40 36 -52 26 -9 -6
-38 -23 -66 -37 -121 -65 -258 -11 -294 114 l-9 31 156 1 c87 0 164 1 172 1 8
0 47 -1 86 -2 39 -1 75 1 81 4 10 6 9 88 -1 132 -32 138 -114 234 -226 263
-33 8 -138 8 -180 -1z m169 -138 c49 -29 78 -69 86 -122 l6 -33 -168 2 c-92 1
-171 2 -175 3 -4 0 -1 21 6 45 25 81 89 126 171 122 28 -2 61 -9 74 -17z"/>
<path d="M4715 2559 c-86 -28 -165 -89 -200 -156 -11 -21 -24 -41 -28 -44 -5
-3 -8 -9 -7 -13 1 -3 -1 -19 -5 -35 -16 -72 -13 -136 8 -216 10 -35 56 -106
90 -138 67 -63 161 -96 262 -91 89 3 146 24 208 75 43 35 45 48 15 73 -13 10
-31 26 -40 34 -16 13 -21 12 -50 -10 -71 -52 -161 -67 -228 -37 -55 25 -102
81 -112 133 -4 26 0 27 207 26 39 -1 103 -1 143 0 40 0 76 -1 80 -1 4 -1 22
-1 40 0 l33 1 -5 63 c-12 167 -93 289 -221 332 -33 11 -158 14 -190 4z m186
-152 c31 -24 69 -92 69 -123 0 -19 -7 -20 -162 -18 -90 1 -168 2 -175 3 -20 2
15 87 50 121 17 17 45 35 62 40 45 14 124 2 156 -23z"/>
<path d="M5818 2565 c-2 -2 -18 -5 -35 -7 l-30 -2 69 -171 c38 -93 78 -190 90
-215 11 -25 21 -49 23 -55 2 -12 13 -38 62 -158 l36 -87 68 1 c66 1 68 2 79
33 6 17 16 38 20 48 5 9 23 54 41 100 17 45 35 88 39 93 6 8 42 100 46 115 1
6 13 36 54 131 16 39 30 77 30 84 0 7 4 15 9 17 5 2 12 18 16 36 l7 32 -44 1
c-24 1 -47 0 -53 -1 -5 -1 -21 -3 -34 -4 -26 -1 -20 11 -106 -226 -31 -85 -60
-164 -65 -175 -4 -11 -15 -37 -22 -58 l-15 -39 -17 49 c-10 26 -20 55 -23 63
-4 8 -7 17 -8 20 0 3 -11 32 -24 65 -13 33 -24 65 -25 70 -2 6 -7 21 -13 35
-5 14 -23 61 -38 105 -36 101 -39 105 -74 95 -15 -4 -35 -4 -43 1 -8 5 -17 6
-20 4z"/>
<path d="M6650 2559 c0 -3 -13 -4 -29 -1 l-30 4 0 -341 1 -341 79 0 c56 0 79
4 80 13 1 16 1 639 0 654 -1 11 -101 24 -101 12z"/>
<path d="M7218 2564 c-2 -1 -15 -4 -28 -6 -47 -7 -115 -45 -158 -87 -84 -83
-112 -151 -108 -264 2 -95 35 -166 113 -245 76 -78 128 -97 264 -95 90 1 143
21 208 80 l44 39 -49 46 c-49 47 -49 47 -70 27 -11 -10 -26 -19 -32 -19 -7 0
-12 -4 -12 -8 0 -15 -76 -39 -116 -37 -74 4 -138 47 -170 112 -20 43 -26 143
-11 188 29 84 115 140 204 133 48 -4 72 -16 149 -73 10 -7 25 4 57 40 25 27
43 54 40 60 -8 19 -89 75 -134 91 -38 14 -182 28 -191 18z"/>
<path d="M7915 2560 c-77 -18 -153 -72 -202 -145 -70 -103 -73 -268 -7 -382
69 -119 189 -176 346 -166 61 4 158 47 202 88 l28 28 -41 38 c-41 39 -61 48
-61 29 0 -5 -7 -10 -15 -10 -8 0 -15 -4 -15 -9 0 -17 -85 -43 -141 -44 -39 0
-67 6 -89 19 -45 26 -90 85 -93 120 l-2 29 145 2 c256 4 326 4 340 1 9 -2 14
3 12 12 -2 8 -5 37 -7 65 -6 82 -15 116 -46 169 -68 119 -132 157 -264 161
-33 1 -73 -2 -90 -5z m171 -155 c34 -26 61 -73 70 -120 3 -19 -1 -20 -172 -21
l-175 0 7 30 c10 47 56 109 94 128 53 25 131 17 176 -17z"/>
</g>
</svg>
